<?xml version="1.0" encoding="UTF-8"?><svg id="Layer_2" xmlns="http://www.w3.org/2000/svg" viewBox="0 0 354.33 221.46"><defs><style>.cls-1{fill:#ed1e79;}.cls-2{fill:#231f20;}</style></defs><g id="Layer_1-2"><g><g><path class="cls-1" d="M295.26,68.21h-19.85l-13.6,38.25h-20.95c-1.36-3.3-3.8-6.04-6.88-7.76-2.23-1.25-4.81-1.97-7.55-1.97-2.39,0-4.63,.55-6.66,1.52-5.32,2.52-8.99,7.95-8.99,14.26s3.67,11.76,8.99,14.28c2.03,.96,4.26,1.52,6.66,1.52,2.74,0,5.32-.72,7.55-1.97,2.35-1.31,4.32-3.24,5.74-5.53h16.97l-11.86,33.33h17.9l5.6-16.35h33.86l5.6,16.35h18.03l-30.57-85.93Zm-22.29,55.81l12.3-35.9,12.3,35.9h-24.6Z"/><path class="cls-1" d="M354.33,68.33v85.8h-17.05V68.33h17.05Z"/></g><path class="cls-2" d="M53.29,73.61c6.78,3.52,12.02,8.54,15.71,15.06,3.69,6.52,5.54,14.08,5.54,22.68s-1.85,16.12-5.54,22.56c-3.7,6.43-8.93,11.41-15.71,14.94-6.78,3.53-14.64,5.29-23.57,5.29H0V68.33H29.72c8.93,0,16.79,1.76,23.57,5.29Zm-3.47,58.51c4.87-4.92,7.31-11.84,7.31-20.77s-2.44-15.92-7.31-20.96c-4.87-5.04-11.77-7.56-20.7-7.56h-12.06v56.67h12.06c8.93,0,15.83-2.46,20.7-7.38Z"/><path class="cls-2" d="M83.1,80.37v-15.86h29.35v89.62h-17.54V80.37h-11.82Z"/><g><path class="cls-1" d="M12.02,197.38h0l221.95,24.08v-88.4c-2.36,.89-4.9,1.4-7.56,1.4-2.32,0-4.55-.38-6.65-1.06v72.1L12.02,182.95v14.42Z"/><path class="cls-1" d="M233.97,91.98V0L12.02,21.89V55.34l14.21-2.05v-18.4L219.76,15.81V91.64c2.1-.68,4.33-1.06,6.65-1.06,2.66,0,5.2,.51,7.56,1.4Z"/></g><path class="cls-2" d="M132.46,136.68v-13.52l39.83-57.53h19.85v56.06h10.72v15h-10.72v17.45h-17.05v-17.45h-42.63Zm43.73-52.62l-24.97,37.62h24.97v-37.62Z"/></g></g></svg>