<svg xmlns="http://www.w3.org/2000/svg" width="239" height="58" viewBox="0 0 239 58" fill="none"><path d="M100.877 14.9697L91.6295 33.5311L91.2053 34.3009L90.7811 33.5311L81.5333 14.9697H78.7335L75.764 41.486H80.5152L82.212 24.4643V24.3787L90.6114 41.5715H91.7992L100.199 24.3787V24.4643L101.895 41.486H106.647L103.677 14.9697H100.877Z" fill="black"></path><path d="M118.524 14.9697H114.112V41.486H118.524V14.9697Z" fill="black"></path><path d="M127.263 41.486V14.9697H134.899C142.789 14.9697 149.152 19.5887 149.152 28.2279C149.152 36.6104 143.213 41.486 134.22 41.486H127.263ZM134.729 37.4658C139.989 37.4658 144.316 34.8142 144.316 28.1423C144.316 22.668 140.498 18.9899 135.238 18.9899H131.59V37.3802H134.729V37.4658Z" fill="black"></path><path d="M156.448 41.4854V15.0547H171.635V19.0749H160.86V25.4046H169.599V29.4248H160.86V37.3797H172.738V41.4854H156.448Z" fill="black"></path><path d="M196.324 14.9697H200.736V38.3211C198.785 40.4595 195.306 42.0847 190.046 42.0847C183.344 42.0847 179.441 38.6633 179.441 31.7348V14.9697H183.853V29.3398C183.853 35.9261 185.38 38.1501 190.81 38.1501C192.931 38.1501 194.882 37.5513 196.24 36.6104V14.9697H196.324Z" fill="black"></path><path d="M233.231 14.9697L223.983 33.5311L223.559 34.3009H223.474L223.135 33.5311L213.887 14.9697H211.002L208.118 41.486H212.869L214.481 24.4643V24.3787L222.965 41.5715H224.153L232.467 24.3787V24.4643L234.249 41.486H239L236.031 14.9697H233.231Z" fill="black"></path><path d="M0 28.7405C0 44.0515 13.5747 55.5133 25.7071 55.5133C40.1303 55.5133 48.9538 43.3672 48.9538 36.6953C48.9538 29.7669 44.2027 23.0095 39.3667 23.0095C35.0397 23.0095 31.4764 27.3719 30.3734 28.9115C30.7128 29.938 31.137 31.9909 31.137 35.4123C31.137 43.5382 24.0951 45.7622 20.4469 45.8477C20.2772 45.8477 2.88463 45.5056 2.88463 24.4637C2.88463 16.5088 5.8541 10.8634 9.92651 6.92871C3.13915 12.4886 0 20.6145 0 28.7405Z" fill="#DAC9B3"></path><path d="M55.9958 19.0746C53.8747 12.4028 49.1236 6.75737 42.6756 3.16484C38.8577 1.11197 34.6156 0 30.2887 0C27.9979 0 25.7072 0.342145 23.4165 0.940899C16.7988 2.8227 11.2841 7.18505 7.97523 13.3437C1.01819 26.2596 7.72071 38.3203 13.4051 41.4851C19.2592 44.6499 25.4527 43.709 27.8283 39.2612C29.7796 35.5831 28.5918 31.4774 27.9979 30.0232C26.9798 29.8522 24.9436 29.2534 22.059 27.6282C15.0171 23.7791 16.3746 16.423 18.0714 13.1726C18.1563 13.0015 26.7253 -2.22394 45.0512 7.86934C51.6689 11.4619 55.1474 16.5085 56.7594 21.7262C56.5049 20.7853 56.2503 19.93 55.9958 19.0746Z" fill="#2F83EE"></path><path d="M52.0932 17.1925C43.9484 5.04638 30.2888 5.38852 24.8589 9.06659C19.3442 12.8302 17.308 18.8177 20.1926 23.009C22.4834 26.516 26.7255 27.2858 28.2526 27.4569C28.6768 26.9437 29.2707 26.2594 30.2888 25.3185C32.325 23.1801 35.549 20.7851 39.2821 20.7851C45.0513 20.7851 51.4145 27.7135 51.4145 37.037C51.4145 43.3666 44.3726 54.9996 31.3918 57.8223C36.0581 57.3946 40.7244 55.7694 44.8816 52.9467C50.4812 49.1831 54.3839 43.3666 55.7414 36.7804C57.3534 29.9374 55.9959 23.009 52.0932 17.1925Z" fill="#E7416A"></path></svg>